<svg id="Layer_1" data-name="Layer 1" xmlns="http://www.w3.org/2000/svg" viewBox="0 0 2499.99 2310"><title>cardano-ada-logo</title><path d="M1219.33,6.84c54.49-28.41,121,37.5,92,91.94-16.81,44.37-80.56,56.17-113.12,22.35C1163.75,88.66,1175,24.5,1219.33,6.84M633.26,70c33.1-13.63,75,16.7,71.62,52.78,3.51,39.16-44.37,68-78.11,49.38-44.7-17.31-39.59-89.88,6.49-102.15M1833.59,173.26c-51.73-6.25-59.91-87.57-10.11-104,38.63-18.84,74.06,16.49,79.71,53.1-8.1,31.26-34.28,59.89-69.6,50.85m-1067,146.19c55.34-35,134.3,17.12,125.79,81.4-2.87,64.9-89.08,102.5-137.71,58.62-47-34.46-39.9-113.53,11.92-140m844.76,37.14C1636.06,293,1736.1,291,1764.2,353c27.77,48.2-6.39,107.89-55.87,124.27-65.55,12.24-127.81-58.62-96.95-120.66M1148.75,473.64c-0.54-54.69,49.27-95.44,101.25-99.16,34.47,6.91,72.05,21.6,86.84,56.39,27.56,48,3.09,114.06-46.71,136.09-22.77,12.76-49.7,8-74.5,6.49-37.91-18.61-69.84-55.11-66.87-99.8M277.19,553.32c50.55-31.08,118.75,25.64,99.61,80.55-10.54,47.5-74.39,66.82-110.89,36.5-39-28.41-32.79-96.73,11.28-117.05m1871.56-.1c42.89-33.3,113.66,4.9,108.55,59,2.88,49.38-58.31,86.61-100.89,61.19-46.89-21.07-51.67-93.21-7.66-120.24m-754.9,98.31c70.77-25.42,154.84,5,195.18,68.1,53.21,77.14,24.9,194.61-57.68,238.87-85.56,52.35-210.5,8-242.1-87.57-35.88-85.54,16.39-192.59,104.6-219.4M978.6,659.95c78.44-37,184-6,221.89,74.27,44.59,78.1,10.11,186.85-69.6,227.17-79.81,45.33-192.41,11-231-72.89C856.54,807.42,895,697.29,978.6,659.95M562.81,802.1c6-50.54,53.64-83.42,101.74-86.83,51.83,6.25,93.23,46.5,98.86,99-3.4,51.92-43.53,102.68-98.55,102.36-60.54,5.21-113.61-55-102.05-114.49m1228.1-75.84c62.15-36.18,148.45,16.49,145.69,87.89,4.26,75.65-91.25,129-153.14,84.59-64.29-36.95-59.28-141,7.45-172.47M809.61,992.89c72.69-20,155.8,14.26,191.45,81.07,39,67.25,23.09,160.67-37.56,210-77.79,72.35-221.25,43.3-262.65-55.44-47.57-90.51,10.21-211.81,108.76-235.64m787.61-.37c70.66-20.21,153.67,7,191.66,71.4,50.23,73.63,26.25,183.44-48.52,230.9-78.33,55.11-199.65,26.17-242.75-60-52.25-89.14.33-215.11,99.61-242.3m-1255.13,84c62.79-23.75,132.39,45.54,106.95,107.79C433.51,1241,353.59,1262,312.3,1220.16c-48.31-39.26-30.42-126.62,29.8-143.65M2044,1166.85c-1.81-52,36.25-98.1,89.6-101,43,6.81,84.81,41.5,81.41,88.31,3.94,61.83-70.56,103.85-123.24,74.8-24.69-12.55-37.35-37.87-47.77-62.14M33.38,1107c37.77-16.49,84.5,16.25,75.88,58.2-2,47.5-72.15,65.76-97.91,26.07C-11.42,1163.76,2.2,1121.26,33.38,1107Zm2381.79-1c26.6-18.94,69.28-5.33,79.81,25.75,17.88,33.94-14.9,80.44-53.1,74.7-53.63,4.89-71-76.84-26.71-100.45m-1400.37,228c99.4-25.85,206.25,57,206.88,159.39,6.49,103.42-98.75,195.14-200.5,171.25-78.65-12.66-140.36-88.42-137.81-167.9-0.21-76,57.15-146.66,131.44-162.74m393.65-.21c100.89-28.2,210.92,56.17,209.32,160.89,5.33,101.51-96.63,190.14-196.25,170-93.75-12.12-162.92-115.12-136.75-206.1,13.21-60.62,63.86-109.92,123.68-124.79m-759,63c69.81-11.91,135.26,66,106.95,132.26-20.65,70.64-123.45,89.8-168.9,32.1-53.31-55.41-13.51-156.71,61.95-164.36M1803.89,1400c62.25-26.07,138.66,27.77,133.87,95.34,2.5,74.38-91.84,125.66-152.71,82.25-69-39-56.4-153.67,18.84-177.59m322.68,323.65c-24.37-45.44,19.9-105.66,70.35-97.25,25.11-.42,42.68,19.36,58.75,36,3.3,26.93,8.84,59-13.51,79.8-30.35,38.41-99.1,27.45-115.59-18.51M277,1639.06c47.15-31.39,115,15.42,104.4,70.55-5.64,48.75-67,76.61-107.5,49-43.41-25.11-41.81-96.61,3.1-119.5m931.5,102.05c61.73-27.24,140.36,26.5,134.51,94.49,4.58,75.12-92.69,127.15-153,82-67-38.74-55.86-152.7,18.53-176.52M777,1841.76c52.57-27.66,123.13,20.11,118.34,79,1.6,48.31-45.55,89.49-93.23,82.35-39.49-.85-65.24-36.25-77.9-69.91,0.65-36.69,15.75-77.55,52.79-91.39m873.93,0.85c54.06-33.41,130.9,14.58,125.79,77.5,1.39,65.76-85.45,107.89-135.79,64.69-48.74-33.86-42.79-115.26,10-142.19m152,375.71c-24-36.39,4.26-80.23,43.31-88.52,31.4,6.39,64.6,30,58,66.4-4.58,49.26-76.63,64.38-101.31,22.12m-1206.39-31.6c9.58-28.84,32.78-57.5,66.73-50,49.49,3.51,64.18,78.1,20.86,101.09-38.95,26.26-84.14-9.7-87.59-51.09m582,33.09c9.48-42.66,64.7-63.41,101.1-40.75,24,10.33,31.07,37.24,37.25,60.11-3.3,11.91-6.25,23.84-9.15,35.75-14.9,17.66-34,35.33-58.85,34.69-46.09,5.4-87.66-46.7-70.35-89.8" style="fill:#3cc8c8"/></svg>