<svg xmlns="http://www.w3.org/2000/svg" viewBox="0 0 694 258">
  <path fill="#e84142" d="M387.83,532.37c-6.74-11.84-17.84-11.87-24.65-.08L320,607.08c-6.81,11.8-1.24,21.46,12.39,21.46h85.47c13.62,0,19.25-9.69,12.5-21.53Z" transform="translate(-153.4 -370.75)"/>
  <path fill="#e84142" d="M337.75,444.45l-22.52-39.53h0L305.57,388c-6.74-11.84-17.78-11.84-24.52,0L156.26,607c-6.75,11.84-1.12,21.53,12.51,21.53H231.4c11.35,0,25.29-8,31-17.88l75.28-130.39C343.32,470.44,343.37,454.32,337.75,444.45Z" transform="translate(-153.4 -370.75)"/>
  <path fill="#e84142" d="M801.27,532.37c-6.74-11.84-17.83-11.87-24.65-.08l-43.18,74.79c-6.81,11.8-1.24,21.46,12.39,21.46H831.3c13.62,0,19.25-9.69,12.51-21.53Z" transform="translate(-153.4 -370.75)"/>
  <path fill="#e84142" d="M751.19,444.45l-22.52-39.53h0L719,388c-6.74-11.84-17.78-11.84-24.52,0L569.7,607c-6.75,11.84-1.12,21.53,12.51,21.53h62.63c11.36,0,25.29-8,31-17.88l75.28-130.39C756.76,470.44,756.81,454.32,751.19,444.45Z" transform="translate(-153.4 -370.75)"/>
  <path fill="#e84142" d="M637.1,392.27c6.75-11.84,1.12-21.52-12.5-21.52H539.13c-13.63,0-19.2,9.65-12.39,21.45L569.92,467c6.82,11.8,17.91,11.77,24.65-.07Z" transform="translate(-153.4 -370.75)"/>
  <path fill="#e84142" d="M544.49,554.83,522,594.36h0l-9.65,16.93c-6.74,11.84-17.78,11.84-24.52,0L363,392.27c-6.75-11.84-1.12-21.52,12.51-21.52h62.63c11.35,0,25.29,8,31,17.87L544.39,519C550.06,528.85,550.11,545,544.49,554.83Z" transform="translate(-153.4 -370.75)"/>
</svg>
