<svg viewBox="0 0 1500 1500" fill="none" xmlns="http://www.w3.org/2000/svg">
  <circle cx="750" cy="750" r="750" fill="#E84142"/>
  <path d="M498.475 1083.53H401.023C358.404 1083.53 337.095 1083.53 324.332 1075.27C310.54 1066.34 301.84 1051.36 300.917 1034.96C300.063 1019.78 310.62 1001.27 331.734 964.25L678.652 355.961C700.072 318.402 710.783 299.622 724.408 292.632C739.131 285.078 756.588 285.066 771.322 292.598C784.957 299.568 795.695 318.332 817.171 355.86L867.241 443.356C890.666 484.289 902.378 504.756 907.528 526.351C913.134 549.855 913.145 574.347 907.559 597.856C902.427 619.455 890.732 639.932 867.342 680.885L867.342 680.886L706.268 962.913C682.537 1004.46 670.672 1025.24 654.413 1040.77C636.718 1057.68 615.258 1070.14 591.801 1077.12C570.249 1083.53 546.324 1083.53 498.475 1083.53Z" fill="white"/>
  <path d="M1125.61 1083.53H959.922C916.916 1083.53 895.413 1083.53 882.613 1075.2C868.781 1066.2 860.106 1051.11 859.287 1034.63C858.529 1019.37 869.351 1000.79 890.994 963.627L973.701 821.612C995.071 784.917 1005.76 766.57 1019.29 759.699C1033.91 752.272 1051.19 752.26 1065.83 759.665C1079.37 766.518 1090.08 784.85 1111.5 821.513L1194.48 963.529C1216.2 1000.71 1227.07 1019.31 1226.33 1034.57C1225.52 1051.07 1216.85 1066.18 1203.01 1075.19C1190.21 1083.53 1168.67 1083.53 1125.61 1083.53Z" fill="white"/>
</svg>
