<svg viewBox="0 0 93 93" fill="none" xmlns="http://www.w3.org/2000/svg"><path d="M46.5 93C72.181 93 93 72.181 93 46.5S72.181 0 46.5 0 0 20.819 0 46.5 20.819 93 46.5 93z" fill="#E84142"/><path d="M32.811 67.176h-9.822c-2.064 0-3.084 0-3.705-.398a2.495 2.495 0 01-1.132-1.952c-.037-.733.473-1.629 1.492-3.419L43.02 20.415c1.032-1.815 1.554-2.723 2.213-3.059a2.502 2.502 0 012.263 0c.659.336 1.18 1.244 2.213 3.059l4.985 8.703c1.132 1.977 1.704 2.972 1.952 4.016a7.38 7.38 0 010 3.456c-.248 1.045-.808 2.04-1.94 4.016L42.846 61.37c-1.144 2.002-1.716 3.009-2.512 3.767a7.41 7.41 0 01-3.021 1.753c-1.032.286-2.188.286-4.501.286zM71.69 67.177H57.614c-2.076 0-3.12 0-3.73-.398a2.518 2.518 0 01-1.131-1.965c-.037-.733.485-1.629 1.53-3.431l7.024-12.06c1.032-1.779 1.554-2.661 2.2-2.997a2.476 2.476 0 012.25 0c.66.336 1.17 1.218 2.214 2.984l7.05 12.06c1.044 1.803 1.579 2.698 1.541 3.432a2.485 2.485 0 01-1.131 1.964c-.622.41-1.666.41-3.743.41z" fill="#fff"/></svg>