<svg id="svg" xmlns="http://www.w3.org/2000/svg" xmlns:xlink="http://www.w3.org/1999/xlink" width="400" height="400" viewBox="0, 0, 400,400" version="1.1"><g id="svgg"><path id="path0" d="M199.200 49.600 L 199.200 99.200 149.197 99.200 L 99.194 99.200 99.203 150.000 L 99.212 200.800 149.206 200.800 L 199.200 200.800 199.200 250.000 L 199.200 299.200 149.200 299.200 L 99.200 299.200 99.200 349.600 L 99.200 400.000 150.000 400.000 L 200.800 400.000 200.800 350.400 L 200.800 300.800 250.800 300.800 L 300.800 300.800 300.800 249.982 C 300.800 209.560,300.698 199.178,300.300 199.230 C 300.025 199.266,277.525 199.273,250.300 199.247 L 200.800 199.200 200.800 150.000 L 200.800 100.800 250.800 100.800 L 300.800 100.800 300.800 50.400 L 300.800 0.000 250.000 0.000 L 199.200 0.000 199.200 49.600 " stroke="none" fill="#5cccac" fill-rule="evenodd"></path><path id="path1" d="" stroke="none" fill="#60ccac" fill-rule="evenodd"></path></g></svg>