<?xml version="1.0" encoding="utf-8"?>
<svg version="1.1" xmlns="http://www.w3.org/2000/svg" xmlns:xlink="http://www.w3.org/1999/xlink"
	 viewBox="0 0 3500 3500.1">
<style type="text/css">
	.st0{fill:#5493F7;}
	.st1{fill:#FFFFFF;}
	.st2{filter:url(#Adobe_OpacityMaskFilter);}
	.st3{mask:url(#b_1_);fill:#FFFFFF;}
</style>
<g>
	<defs>
		<path id="SVGID_1_" d="M1750,0c966.5,0,1750,783.5,1750,1750s-783.5,1750-1750,1750S0,2716.5,0,1750S783.5,0,1750,0L1750,0z"/>
	</defs>
	<use xlink:href="#SVGID_1_"  style="overflow:visible;fill-rule:evenodd;clip-rule:evenodd;fill:#183456;"/>
	<clipPath id="SVGID_2_">
		<use xlink:href="#SVGID_1_"  style="overflow:visible;"/>
	</clipPath>
</g>
<g>
	<path class="st0" d="M1636.2,2339.7c56.5,208.9,259.2,368.4,361.5,361.8c3.6-0.2,388.2-71.9,598.7-423.8
		c163.9-273.7,108.1-538-114.8-543.8C2401.5,1739.9,1528.6,1941.5,1636.2,2339.7 M2460.9,997.4l-0.2-0.2l0.3-0.2
		c-176.7-150.8-401.6-233.5-633.9-233c-141.4,0-275.6,30.3-396.9,84.3c-21.8,9.2-42.5,19.3-61.9,30.4c-13.8,7.4-27.5,14.6-40.8,22.6
		l3.3,1c-39.4,26.8-74.3,59.8-103.2,97.7c-280.8,370.9,660.2,640.4,1163.3,641.4C2622.1,1807.3,2687.2,1173.4,2460.9,997.4"/>
	<path class="st1" d="M1486.8,1004.9c-129.2,194.3-559.8,331.2-630.6,309.8l-0.4-0.9c2.9-5.9,5.9-11.7,8.8-17.5
		c48.8-94.2,111.8-180.3,186.9-255.2c60.7-60.7,128.7-113.6,202.4-157.6c60.3-34.9,122-37.2,142.3-37.9
		C1588.1,849.5,1487.9,1003.4,1486.8,1004.9"/>
	<g transform="translate(0 10.427)">
		<defs>
			<filter id="Adobe_OpacityMaskFilter" filterUnits="userSpaceOnUse" x="749.6" y="1403" width="635" height="1287.2">
				<feColorMatrix  type="matrix" values="1 0 0 0 0  0 1 0 0 0  0 0 1 0 0  0 0 0 1 0"/>
			</filter>
		</defs>
		<mask maskUnits="userSpaceOnUse" x="749.6" y="1403" width="635" height="1287.2" id="b_1_">
			<g class="st2">
				<path class="st1" d="M749.6,1403h635v1287.2h-635V1403z"/>
			</g>
		</mask>
		<path class="st3" d="M1380.9,2367.5c9.2,61.1-0.2,302.2-12.8,322.5c-10.7,0.7-33.1,2.1-98-34.3c-80-45.6-153.5-101.8-218.6-166.9
			c-75-75-138.1-161.1-186.9-255.2c-75.9-146.4-115.4-308.9-115.1-473.8c0-56.9,4.6-112.8,13.5-167.2
			c10.5-64.6,27.3-128.1,49.9-189.5c74.4,98.8,160.4,188.3,233.5,288.1c69.6,95.1,165.4,250,184.8,283.2
			C1352.4,2179.7,1371.7,2306.6,1380.9,2367.5"/>
	</g>
	<path class="st1" d="M2811.3,1770.1c0,133.7-25.5,261.4-71.8,378.6c-121.4,130.6-940-190.7-948.1-194.2
		c-111.9-49.1-452.8-198.3-483.5-432.9c-44.2-337.4,640.3-572.5,941.1-581.4c36.1,0.4,145.8,1.7,209.9,53.7
		C2683.1,1189.5,2811.6,1472.6,2811.3,1770.1 M2257.1,2684.5c-89.3,41.6-187.5,11.3-162-75.6c49-166.9,476.9-338,571.5-347.3
		c11.7-1.1,16.6,6.8,11.4,15.9C2579.5,2450.6,2433.5,2591.9,2257.1,2684.5"/>
</g>
</svg>
