<svg xmlns="http://www.w3.org/2000/svg" width="2000" height="2258.15" viewBox="0 0 2000 2258.15">
  <g fill="#001c3a">
    <path d="m309.56 476.09l166.53-95.64 22.43 38.51 613.84-354-44.86-25.81-45.07-26.24-22.43-12.91-1000 577.66 0 25.81 287.13-166.1 22.43 38.72"/>
    <path d="m309.56 839.82l481.17-278.03 22.43 39.14 613.84-354.21-44.86-26.24-45.07-25.81-22.43-12.7-1314.64 759 0 25.81 287.13-166.1 22.43 39.14"/>
    <path d="m309.56 1021.58l638.39-368.6 22.64 38.73 613.62-354.64-44.85-25.39-44.86-26.24-22.64-12.9-1471.86 849.76 0 26.24 287.13-165.89 22.43 38.93"/>
    <path d="m309.56 1203.13l800.26-461.91 22.64 38.72 609.18-351.67-44.86-26.24-45.07-25.81-22.42-12.91-1629.29 940.96 0 25.82 287.13-166.1 22.43 39.14"/>
    <path d="m309.56 1384.47l957.68-552.69 22.43 39.15 609.19-352.1-44.86-25.6-44.86-26.24-22.64-12.91-1786.5 1031.53 0 25.82 287.13-165.68 22.43 38.72"/>
    <path d="m1966.36 557.98l-22.43-13.12-1943.93 1122.72 0 25.82 287.13-165.68 22.43 38.72 957.68-552.69 22.43 38.73 710.33-409.86 0-52.06 0-12.9-33.64-19.68"/>
    <path d="m123.15 1803.64l161.02-92.89 22.43 38.72 955.99-551.84 22.43 39.15 714.98-412.83 0-52.05 0-52.05 0-25.82-1898.86 1096.7 22.01 12.91"/>
    <path d="m1262.59 1379.6l22.43 39.15 714.98-412.83 0-52.05 0-52.05 0-25.82-1741.64 1005.51 22.64 12.9 163.35-94.58 22.64 39.15"/>
    <path d="m438.21 1985.4l163.57-94.79 22.43 39.14 638.38-368.81 22.43 39.15 714.98-412.83 0-52.05 0-51.63 0-26.03-1584.64 914.52 22.85 13.33"/>
    <path d="m595.43 2076.17l163.56-94.37 22.64 38.73 480.96-277.62 22.43 38.72 714.98-412.82 0-51.63 0-52.05 0-25.82-1427 823.96 22.43 12.9"/>
    <path d="m730.43 2154.04l22.43 12.91 163.98-94.58 22.01 39.14 323.74-187.26 22.43 39.14 714.98-412.82 0-52.05 0-52.05 0-25.82-1269.57 733.39"/>
    <path d="m910.07 2258.15l163.56-95.01 22.43 39.14 166.53-96.48 22.43 39.14 714.98-412.4 0-52.05 0-52.05 0-25.82-1112.36 642.62 22.43 12.91"/>
    <path d="m1269.78 155.73l-45.07-25.81-44.85-25.81-22.43-13.34-1157.43 668.22 0 25.82 287.13-165.47 22.43 38.51 323.74-186.84 23.07 39.15 613.41-354.43"/>
  </g>
</svg>
