<svg viewBox="0 0 513 513" xmlns="http://www.w3.org/2000/svg">
<circle cx="256.5" cy="256.5" r="256.5" fill="#0A090E"/>
<path fill-rule="evenodd" clip-rule="evenodd" d="M71.479 320.807V256.739C71.479 154.975 153.975 72.4794 255.739 72.4794C305.933 72.4794 351.439 92.5499 384.671 125.104L345.5 149.58C321.217 129.217 289.909 116.956 255.739 116.956C178.538 116.956 115.955 179.539 115.955 256.739H160.432L71.479 320.807ZM165.303 363.328C189.68 384.031 221.252 396.522 255.74 396.522C332.941 396.522 395.523 333.939 395.523 256.739H351.048L439.997 191.613L440 256.739C440 358.502 357.504 440.998 255.74 440.998C205.235 440.998 159.475 420.678 126.191 387.767L165.303 363.328ZM326.424 317.894H275.594L255.74 291.074L235.887 317.894H185.057L231.106 257.797L185.053 195.584H232.706L255.74 225.646L278.776 195.584H326.428L280.376 257.797L326.424 317.894Z" fill="url(#paint)"/>
<defs>
<linearGradient id="paint" x1="256" y1="140" x2="256" y2="441" gradientUnits="userSpaceOnUse">
<stop stop-color="#F4F5FA"/>
<stop offset="1" stop-color="#D7D2F2"/>
</linearGradient>
</defs>
</svg>
